<svg width="120" height="120" viewBox="12 12 96 96" fill="none" xmlns="http://www.w3.org/2000/svg">

<path d="M59.9998 98.6154C81.3264 98.6154 98.6149 81.3268 98.615 60.0002C98.615 38.6735 81.3264 21.3849 59.9998 21.3849C38.6731 21.385 21.3845 38.6735 21.3845 60.0002C21.3846 81.3268 38.6732 98.6153 59.9998 98.6154Z" stroke="none" stroke-width="8"/>
<path d="M57.7764 28.717C57.3438 28.7407 56.9853 28.7644 56.9794 28.7733C56.9675 28.7822 57.246 34.3596 57.2609 34.3774C57.2668 34.3893 59.2667 34.2915 59.2815 34.2797C59.2933 34.2678 59.0208 28.8859 59.003 28.7615L58.9882 28.6667L58.7749 28.6696C58.6563 28.6726 58.209 28.6933 57.7764 28.717Z" fill="#33a1e0"/>
<path d="M62.0577 28.7141C61.788 28.7526 61.5244 28.8355 61.2725 28.954C60.4192 29.3628 60.0874 30.2721 60.4874 31.1103C60.6888 31.528 60.9703 31.7945 61.791 32.3484C62.5791 32.8786 62.7421 33.0682 62.6621 33.3614C62.6028 33.5836 62.4339 33.711 62.1377 33.7583C61.5244 33.8561 60.8992 33.474 60.837 32.9645C60.8222 32.8253 60.8133 32.8135 60.7422 32.8105C60.7007 32.8105 60.5674 32.7987 60.4488 32.7868C60.3303 32.775 60.2266 32.775 60.2207 32.7868C60.2 32.8164 59.9096 33.8887 59.9096 33.9272C59.9096 34.0042 60.6207 34.2649 61.2044 34.4041C61.5332 34.4811 61.5955 34.484 62.2058 34.484C62.831 34.484 62.8695 34.4811 63.1184 34.4041C63.8028 34.1938 64.2235 33.8383 64.4309 33.2992C64.5375 33.0267 64.5642 32.4995 64.4872 32.2329C64.3272 31.679 63.9598 31.3029 63.0532 30.7638C62.3599 30.3521 62.1584 30.1921 62.114 30.0144C62.0843 29.8989 62.1258 29.7448 62.2117 29.6441C62.3421 29.4901 62.4991 29.4279 62.7984 29.4131C63.1035 29.3983 63.3109 29.4575 63.5006 29.6145C63.622 29.7152 63.7909 30.0262 63.7909 30.1506C63.7909 30.2395 63.7554 30.2277 64.2502 30.275C64.3005 30.281 64.3331 30.2158 64.4753 29.7982L64.6412 29.3154L64.5198 29.2443C64.1939 29.0547 63.7376 28.8918 63.2369 28.7852C62.9554 28.7259 62.2621 28.6845 62.0577 28.7141Z" fill="#33a1e0"/>
<path d="M54.6802 28.9895C54.1291 29.1169 54.058 29.1376 54.064 29.188C54.0669 29.2176 54.2032 29.8426 54.3662 30.5772C54.5291 31.3088 54.6565 31.913 54.6536 31.916C54.6506 31.919 54.0195 31.4036 53.2521 30.7697L51.8537 29.6175L51.0063 29.8041C50.5382 29.9107 50.153 29.9996 50.1471 30.0055C50.1382 30.0144 51.3382 35.4822 51.3559 35.497C51.3589 35.5 51.6641 35.4348 52.0374 35.3519C52.6151 35.2245 52.71 35.1949 52.71 35.1475C52.71 35.1179 52.5737 34.487 52.4107 33.7465C52.2448 33.003 52.1174 32.3899 52.1263 32.381C52.1381 32.3692 53.7381 33.7021 54.8758 34.6706C54.9173 34.7032 55.0476 34.6825 55.7794 34.5225C56.4194 34.3804 56.6327 34.3211 56.6298 34.2915C56.6268 34.2678 56.3572 33.0386 56.0313 31.5606C55.7024 30.0796 55.4358 28.8651 55.4358 28.8563C55.4358 28.8266 55.2669 28.8563 54.6802 28.9895Z" fill="#33a1e0"/>
<path d="M65.7079 31.9782C65.2545 33.4385 64.8842 34.6499 64.8872 34.6706C64.8872 34.6884 64.9109 34.7121 64.9405 34.721C64.9672 34.7299 65.3849 34.8572 65.8649 35.0083C66.3449 35.1564 66.7567 35.2808 66.7774 35.2838C66.8041 35.2867 66.89 35.0587 67.0352 34.5966C67.1537 34.2175 67.2545 33.9005 67.2633 33.8946C67.2693 33.8887 67.3878 34.2678 67.5241 34.7388L67.7729 35.5977L67.9537 35.654C68.6648 35.8851 69.9625 36.279 69.9743 36.2672C69.9862 36.2583 68.9581 33.2282 68.7181 32.5587C68.7122 32.541 69.3284 32.1707 70.0869 31.7323C70.8454 31.2969 71.4854 30.9237 71.512 30.9059C71.5476 30.8793 71.3965 30.8201 70.7713 30.6275C70.3358 30.4913 69.9654 30.3906 69.9447 30.4024C69.9269 30.4172 69.4884 30.7282 68.9729 31.0985C68.4574 31.4687 67.9981 31.7945 67.9566 31.8212L67.8796 31.8716L67.9211 31.7442C67.9418 31.6731 68.0781 31.2377 68.2203 30.7756C68.3626 30.3165 68.4722 29.9315 68.4633 29.9196C68.4455 29.9048 66.5819 29.3183 66.5463 29.3183C66.5375 29.3183 66.1612 30.515 65.7079 31.9782Z" fill="#33a1e0"/>
<path d="M47.7176 30.9356C47.3265 31.1222 46.9976 31.2851 46.9828 31.2999C46.971 31.3117 46.8465 31.8686 46.7073 32.5351C46.571 33.2015 46.4525 33.7584 46.4465 33.7761C46.4347 33.8057 46.3488 33.6339 45.8421 32.5617C45.6732 32.2063 45.5577 31.9989 45.531 31.9989C45.4658 31.9989 43.7326 32.8224 43.7326 32.8549C43.7326 32.8846 46.0999 37.8844 46.1295 37.9111C46.1384 37.9229 46.5473 37.7393 47.0361 37.5053C47.525 37.2713 47.9368 37.0758 47.9517 37.0699C47.9665 37.0639 47.8361 36.7618 47.6613 36.3975C47.4895 36.0332 47.3532 35.731 47.3591 35.7251C47.365 35.7192 47.7028 35.9147 48.1116 36.1605C48.5176 36.4034 48.8672 36.6048 48.8879 36.6048C48.9294 36.6048 50.9026 35.6688 50.9411 35.6303C50.953 35.6185 50.1856 35.189 49.2375 34.6795C48.2865 34.1701 47.5043 33.7465 47.4983 33.7435C47.4924 33.7376 47.6909 33.083 47.9398 32.2892C48.5057 30.4854 48.4731 30.592 48.4494 30.592C48.4376 30.5949 48.1087 30.749 47.7176 30.9356Z" fill="#33a1e0"/>
<path d="M72.5757 34.4663C71.3076 35.4882 70.2676 36.3353 70.2706 36.3531C70.2706 36.3797 71.0617 36.8684 71.352 37.0195L71.4617 37.0787L72.1165 36.516C72.4779 36.205 72.7772 35.9532 72.7831 35.9532C72.789 35.9532 73.0705 36.1161 73.4053 36.3116C73.7549 36.5189 74.0127 36.6907 74.0127 36.7174C74.0127 36.7411 73.9386 37.1143 73.8497 37.5467C73.7579 37.9792 73.6897 38.3524 73.6927 38.3731C73.6986 38.4057 75.4644 39.4809 75.4852 39.4661C75.4881 39.4631 75.7163 38.151 75.9948 36.5456C76.2733 34.9402 76.5074 33.6073 76.5133 33.5806C76.5192 33.5451 76.3118 33.4088 75.7518 33.0771C75.3282 32.8253 74.9578 32.618 74.9341 32.615C74.9074 32.6091 73.8467 33.4444 72.5757 34.4663ZM74.3326 35.1831C74.2497 35.5652 74.1786 35.8821 74.1726 35.888C74.1697 35.8939 73.9919 35.7962 73.7756 35.6688C73.4438 35.4733 73.3934 35.4348 73.426 35.3993C73.5001 35.3282 74.4719 34.4781 74.4778 34.484C74.4808 34.487 74.4156 34.801 74.3326 35.1831Z" fill="#33a1e0"/>
<path d="M40.8438 34.8602C40.0143 35.4793 39.3091 36.0065 39.2765 36.0272C39.2261 36.0628 39.3447 36.2287 40.8883 38.305C41.8038 39.5372 42.5652 40.5502 42.5801 40.5591C42.6008 40.5739 45.5458 38.4087 45.6851 38.2784C45.7207 38.2428 45.691 38.1895 45.4836 37.9111L45.2407 37.5852L44.5237 38.1214C44.1296 38.4146 43.7919 38.6693 43.7711 38.6841C43.7474 38.7019 43.5904 38.5153 43.2585 38.0681C42.9949 37.7156 42.7726 37.4075 42.7638 37.3868C42.7549 37.3631 43.0186 37.1498 43.4571 36.824C43.8452 36.5367 44.1652 36.2968 44.1711 36.2938C44.177 36.2879 44.0704 36.1368 43.937 35.9591L43.6941 35.6333L43.4689 35.7992C43.3445 35.891 43.0334 36.122 42.7756 36.3146C42.5208 36.5071 42.2927 36.673 42.2719 36.6818C42.2482 36.6907 42.0586 36.4567 41.7949 36.0983C41.4246 35.6007 41.3623 35.497 41.3949 35.4674C41.4186 35.4467 41.7534 35.192 42.1416 34.9046C42.5297 34.6173 42.8437 34.3715 42.8378 34.3567C42.823 34.3152 42.3845 33.7347 42.3697 33.7317C42.3608 33.7317 41.6764 34.2412 40.8438 34.8602Z" fill="#33a1e0"/>
<path d="M36.3285 38.9241L34.6367 40.7664L34.9241 41.0389C35.0841 41.19 35.2204 41.3144 35.2323 41.3144C35.2411 41.3144 35.4663 41.0745 35.733 40.7812C35.9996 40.488 36.2278 40.2481 36.2367 40.2481C36.2485 40.2481 37.0455 40.9738 38.0114 41.8624C38.9773 42.751 39.7772 43.4766 39.7891 43.4766C39.8217 43.4766 41.1401 42.0193 41.1401 41.9838C41.1401 41.9631 40.3816 41.2522 39.4513 40.3991C38.524 39.5461 37.7329 38.8174 37.6944 38.7819L37.6262 38.7167L38.1092 38.1895C38.3758 37.9022 38.5951 37.6474 38.601 37.6297C38.6069 37.6001 38.2099 37.215 38.0706 37.1173C38.0262 37.0847 37.8247 37.295 36.3285 38.9241Z" fill="#33a1e0"/>
<path d="M80.1635 39.8897C78.9784 40.8642 78.0065 41.6728 78.0095 41.6876C78.0184 41.7291 79.2569 43.2397 79.2806 43.2397C79.2954 43.2397 79.7279 42.8931 80.2464 42.4696C80.7649 42.046 81.1975 41.6995 81.2094 41.6995C81.239 41.6995 82.1723 42.8487 82.1812 42.8931C82.1841 42.9139 81.7604 43.2752 81.242 43.6988C80.7205 44.1224 80.2938 44.4778 80.2938 44.4867C80.2938 44.5222 81.5442 46.0388 81.5738 46.0388C81.6153 46.0388 85.9232 42.5199 85.9143 42.4933C85.9054 42.4636 84.6788 40.9619 84.6462 40.9441C84.6314 40.9323 84.2196 41.2552 83.7307 41.658C83.2389 42.0579 82.8359 42.3837 82.83 42.3777C82.8271 42.3718 82.6078 42.1023 82.3441 41.7794C82.0804 41.4566 81.8641 41.1811 81.8641 41.1693C81.8641 41.1544 82.1752 40.8908 82.5545 40.5828C82.9308 40.2718 83.3307 39.946 83.4404 39.8571L83.6418 39.6912L83.0019 38.9122C82.6523 38.4827 82.356 38.1273 82.3441 38.1243C82.3323 38.1214 81.3516 38.9152 80.1635 39.8897Z" fill="#33a1e0"/>
<path d="M55.6431 43.7936C55.6431 44.3919 55.658 44.9665 55.6728 45.0702C55.7261 45.4434 55.9602 45.7988 56.2683 45.9855C56.5705 46.1661 56.6357 46.1721 58.1527 46.1721H59.5244V45.0347C59.5244 44.4008 59.5126 43.8291 59.4948 43.7403C59.4237 43.3552 59.1452 42.9938 58.7867 42.8161L58.5912 42.7213L55.6431 42.7036V43.7936Z" fill="#33a1e0"/>
<path d="M61.071 42.7628C60.6503 42.9079 60.3333 43.2693 60.2385 43.7077C60.2178 43.8084 60.2059 44.2764 60.2059 45.0169V46.1721H61.5777C63.0709 46.1721 63.1598 46.1632 63.4354 46.0032C63.6368 45.8847 63.8294 45.6715 63.942 45.4464L64.0428 45.239L64.0605 42.7065H62.6443C61.3525 42.7095 61.2133 42.7125 61.071 42.7628Z" fill="#33a1e0"/>
<path d="M85.4047 44.8984C84.9366 44.9725 84.3055 45.2213 83.9055 45.4938C83.4878 45.7752 83.1085 46.2461 82.9337 46.7052C82.7945 47.0666 82.7441 47.4161 82.7619 47.89C82.7885 48.5239 82.9219 49.0185 83.2389 49.6465C83.6774 50.5203 84.1988 51.0949 84.8122 51.3881C85.1203 51.5362 85.3395 51.5925 85.6892 51.6132C86.2195 51.6458 86.7884 51.5066 87.3839 51.2015C88.1187 50.8224 88.5749 50.3277 88.8001 49.6672C88.8831 49.4243 88.8979 49.3355 88.9097 48.9948C88.9334 48.3165 88.7764 47.6649 88.4001 46.8978C87.8609 45.7989 87.1913 45.162 86.338 44.9399C86.1306 44.8866 85.6329 44.8629 85.4047 44.8984ZM87.3157 46.7615C87.6031 46.8711 87.7987 47.0814 87.9142 47.4102C88.1542 48.0914 87.6683 48.7105 86.4269 49.3088C85.2684 49.8657 84.5011 49.9338 84.0507 49.5221C83.9589 49.4362 83.8552 49.3029 83.8048 49.2022C83.7278 49.0511 83.7159 49.0008 83.7159 48.7638C83.7159 48.4321 83.79 48.2573 84.0448 47.9818C84.3114 47.6916 84.6433 47.4635 85.1677 47.2058C86.1425 46.7289 86.8447 46.5838 87.3157 46.7615Z" fill="#33a1e0"/>
<path d="M31.0369 46.8C30.5836 47.7656 30.2103 48.5654 30.2043 48.5742C30.1925 48.595 35.2471 50.9794 35.2797 50.9705C35.3004 50.9616 36.9477 47.4842 36.9477 47.4487C36.9477 47.4339 36.8085 47.3628 36.367 47.1643L36.2159 47.0962L35.8219 47.9374C35.6026 48.3995 35.4159 48.7786 35.4041 48.7786C35.3834 48.7786 34.3079 48.2751 34.0531 48.1477L33.9019 48.0707L34.2842 47.2621L34.6634 46.4535L34.3079 46.2817C34.1093 46.1839 33.9375 46.1187 33.9256 46.1336C33.9138 46.1454 33.739 46.5068 33.5375 46.9333C33.339 47.3628 33.1612 47.7123 33.1494 47.7123C33.099 47.7123 31.8072 47.0903 31.8132 47.0666C31.8161 47.0547 31.9939 46.6756 32.2072 46.2195C32.4205 45.7663 32.5894 45.3901 32.5835 45.3842C32.5716 45.3723 31.8843 45.0465 31.8724 45.0465C31.8665 45.0465 31.4902 45.8374 31.0369 46.8Z" fill="#33a1e0"/>
<path d="M88.7527 45.3012C88.5453 45.4079 88.4416 45.5708 88.4416 45.787C88.4416 46.2254 88.9453 46.4771 89.289 46.2165C89.4104 46.1247 89.5053 45.9381 89.5082 45.7929C89.5082 45.6833 89.4401 45.5056 89.366 45.4227C89.2268 45.2657 88.9305 45.2094 88.7527 45.3012Z" fill="#33a1e0"/>
<path d="M46.5473 47.9463C46.5473 48.6779 46.5591 49.1578 46.5799 49.2585C46.6717 49.6968 47.0124 50.07 47.445 50.2063C47.602 50.2537 47.7472 50.2596 49.0094 50.2596H50.4019L50.3841 47.7271L50.2893 47.5257C50.1649 47.265 49.9427 47.0429 49.6731 46.9096L49.4657 46.8089L46.5473 46.7911V47.9463Z" fill="#33a1e0"/>
<path d="M51.11 47.9256C51.11 49.1814 51.1278 49.3444 51.2848 49.6198C51.4093 49.8331 51.6344 50.0375 51.8744 50.15L52.0729 50.2448L54.9913 50.2626V49.1578C54.9913 48.5357 54.9765 47.97 54.9587 47.8634C54.8936 47.4487 54.6388 47.1081 54.2565 46.9214L54.0314 46.8089L51.11 46.7911V47.9256Z" fill="#33a1e0"/>
<path d="M55.6431 47.8811C55.6431 48.4795 55.658 49.063 55.6728 49.1726C55.735 49.5961 55.9898 49.9397 56.3779 50.1322L56.6031 50.2448L59.5244 50.2626V49.1252C59.5244 48.4883 59.5126 47.9167 59.4948 47.8278C59.4207 47.4368 59.1422 47.0844 58.763 46.9037L58.5615 46.8089L55.6431 46.7911V47.8811Z" fill="#33a1e0"/>
<path d="M61.1096 46.8474C60.6622 47.0014 60.3303 47.3628 60.2385 47.7952C60.2178 47.8959 60.2059 48.3639 60.2059 49.1074V50.2626L63.1243 50.2448L63.3169 50.153C63.5983 50.0197 63.7968 49.8242 63.9302 49.5547L64.0428 49.3295L64.0605 46.7941H62.6591C61.4088 46.797 61.2429 46.803 61.1096 46.8474Z" fill="#33a1e0"/>
<path d="M65.6427 46.8474C65.1805 47.0073 64.8546 47.3746 64.7686 47.8308C64.7509 47.9196 64.739 48.4854 64.739 49.1252V50.2626L67.6574 50.2448L67.8559 50.15C68.1196 50.0256 68.3211 49.8331 68.4603 49.5695L68.5759 49.3562L68.5937 46.7941H67.1922C65.9419 46.797 65.776 46.803 65.6427 46.8474Z" fill="#33a1e0"/>
<path d="M70.2676 46.8267C69.9328 46.9066 69.604 47.1851 69.441 47.5287L69.3462 47.7271L69.3284 50.2626L72.2201 50.2448L72.4216 50.15C72.8009 49.9693 73.0794 49.6169 73.1534 49.2259C73.1712 49.137 73.1831 48.5654 73.1831 47.9315V46.7941L71.7846 46.797C71.0143 46.8 70.3328 46.8119 70.2676 46.8267Z" fill="#33a1e0"/>
<path d="M89.4312 46.88C89.1557 47.0488 89.0786 47.3894 89.2564 47.659C89.3453 47.7923 89.526 47.89 89.686 47.89C89.8134 47.89 90.003 47.8041 90.0919 47.7093C90.3082 47.4724 90.246 47.0577 89.9645 46.8948C89.8104 46.8059 89.5675 46.797 89.4312 46.88Z" fill="#33a1e0"/>
<path d="M29.4903 50.9172C29.2177 51.3378 28.9629 52.0368 28.794 52.8277C28.7348 53.1002 28.7259 53.2305 28.7259 53.7103C28.7259 54.3768 28.7763 54.6197 29.0044 55.1025C29.4103 55.9555 30.2132 56.4946 31.271 56.6279C32.145 56.7405 32.942 56.465 33.5583 55.84C34.1686 55.2239 34.4945 54.436 34.6989 53.0735C34.7671 52.6203 34.7878 51.714 34.7345 51.5066L34.7108 51.4059L33.5997 51.1423C32.9924 50.9972 32.4768 50.8846 32.4591 50.8935C32.4324 50.9024 31.9554 52.8336 31.9761 52.8514C31.982 52.8573 32.4176 52.961 32.9479 53.0883C33.4783 53.2127 33.9168 53.3223 33.9227 53.3282C33.9523 53.3549 33.8575 53.7785 33.7864 53.9266C33.5434 54.439 32.9153 54.6878 32.062 54.6108C31.2147 54.5338 30.4177 54.2257 29.9673 53.8051C29.6029 53.4645 29.4577 53.1564 29.4903 52.7803C29.5347 52.256 29.8429 51.8917 30.3021 51.8147L30.4236 51.7969L30.5036 51.474C30.548 51.2963 30.5777 51.1364 30.5717 51.1186C30.5628 51.089 29.7095 50.7039 29.6533 50.7039C29.6384 50.7039 29.5673 50.8017 29.4903 50.9172Z" fill="#33a1e0"/>
<path d="M42.0201 52.1168C42.029 53.3223 42.0319 53.3608 42.0971 53.5208C42.1979 53.7755 42.3756 54.0006 42.5801 54.1369C42.8941 54.3472 42.8912 54.3472 44.4644 54.3472H45.8688L45.851 51.8147L45.7592 51.6221C45.6436 51.3822 45.4747 51.1926 45.2703 51.0682C44.9681 50.8876 44.9029 50.8816 43.383 50.8816H42.0112L42.0201 52.1168Z" fill="#33a1e0"/>
<path d="M46.5621 53.3845L46.6717 53.6156C46.808 53.8969 47.0036 54.0984 47.2791 54.2346L47.4806 54.3324L50.4019 54.3501L50.3841 51.8147L50.2834 51.6103C50.1145 51.2637 49.7827 50.9971 49.4183 50.9142C49.3412 50.8964 48.7309 50.8816 47.9161 50.8816H46.5443L46.5621 53.3845Z" fill="#33a1e0"/>
<path d="M51.11 51.9983C51.11 52.6144 51.1248 53.1979 51.1397 53.2957C51.2048 53.6866 51.4804 54.0569 51.8478 54.2376L52.0433 54.3324L54.9913 54.3501V53.2453C54.9913 52.6381 54.9795 52.0635 54.9617 51.9657C54.9024 51.6014 54.6684 51.2489 54.3662 51.0682C54.064 50.8876 53.9988 50.8816 52.4818 50.8816H51.11V51.9983Z" fill="#33a1e0"/>
<path d="M55.6431 51.9835C55.6431 53.1564 55.6609 53.3756 55.7765 53.6304C55.8772 53.8525 56.1379 54.1132 56.3779 54.2316L56.5764 54.3324L59.5244 54.3501V53.2275C59.5244 52.5433 59.5126 52.0398 59.4919 51.9302C59.403 51.4444 59.0385 51.0505 58.5615 50.9261C58.4164 50.8905 58.1556 50.8816 57.0149 50.8816H55.6431V51.9835Z" fill="#33a1e0"/>
<path d="M61.1629 50.9261C61.077 50.9498 60.9496 50.9971 60.8814 51.0327C60.7096 51.1186 60.4666 51.3556 60.3748 51.5273C60.2148 51.8206 60.2059 51.9183 60.2059 53.1831V54.3501L63.1539 54.3324L63.3228 54.2494C63.5865 54.1191 63.7998 53.9058 63.9302 53.6422L64.0428 53.4171L64.0605 50.8816L62.6887 50.8846C61.6044 50.8846 61.2844 50.8935 61.1629 50.9261Z" fill="#33a1e0"/>
<path d="M65.6871 50.929C65.2308 51.0505 64.8575 51.4563 64.7686 51.9213C64.7509 52.0072 64.739 52.5877 64.739 53.2127V54.3501L67.687 54.3324L67.8855 54.2316C68.1285 54.1102 68.3685 53.8673 68.49 53.6215L68.5759 53.4438L68.5937 50.8816L67.2219 50.8846C66.1138 50.8846 65.8175 50.8935 65.6871 50.929Z" fill="#33a1e0"/>
<path d="M70.2499 50.929C69.8973 51.0238 69.6069 51.2726 69.4381 51.6221L69.3462 51.8147L69.3284 54.3472H70.7328C72.3061 54.3472 72.3031 54.3472 72.6172 54.1369C72.8216 54.0006 72.9994 53.7755 73.1001 53.5208C73.1653 53.3608 73.1683 53.3223 73.1771 52.1168L73.186 50.8816L71.7994 50.8846C70.6765 50.8846 70.3832 50.8935 70.2499 50.929Z" fill="#33a1e0"/>
<path d="M74.783 50.929C74.3238 51.0534 73.9534 51.4563 73.8675 51.9302C73.8467 52.0368 73.8349 52.5463 73.8349 53.2275V54.3501L76.7829 54.3324L76.9784 54.2376C77.2125 54.1221 77.4792 53.8525 77.5829 53.6304C77.6984 53.3756 77.7162 53.1564 77.7162 51.9835V50.8816L76.3325 50.8846C75.2096 50.8846 74.9163 50.8935 74.783 50.929Z" fill="#33a1e0"/>
<path d="M87.8342 52.2619C87.3394 52.3212 86.9602 52.4219 86.6491 52.5789C85.6566 53.0765 85.1232 54.0362 85.1232 55.3305C85.1232 56.1066 85.4284 57.3832 85.7928 58.1237C85.864 58.2688 85.9528 58.4258 85.9884 58.4732L86.0565 58.5532L87.1528 58.3607C87.7572 58.254 88.2698 58.1563 88.2964 58.1444C88.3379 58.1267 88.329 58.0467 88.2164 57.4128C88.1453 57.0218 88.0653 56.5775 88.0387 56.4265C87.9972 56.1984 87.9824 56.154 87.935 56.154C87.9053 56.154 87.4698 56.228 86.972 56.3169C86.4713 56.4057 86.0447 56.4798 86.0239 56.4798C86.0062 56.4798 85.9677 56.388 85.938 56.2695C85.7099 55.3365 86.3973 54.6759 87.8935 54.3886C88.2846 54.3116 88.9423 54.3205 89.2564 54.4034C89.8786 54.5693 90.2312 54.8892 90.3349 55.3779C90.4149 55.7571 90.3497 56.0266 90.1215 56.2547C90.0356 56.3406 89.9349 56.4294 89.8964 56.4531L89.8253 56.4976L89.8815 56.8382L89.9408 57.1759L90.4623 57.1848C91.0667 57.1936 90.9926 57.244 91.0519 56.776C91.1289 56.154 90.9837 54.9899 90.7467 54.3205C90.3941 53.3194 89.7216 52.6174 88.8712 52.3656C88.5631 52.2738 88.1187 52.2293 87.8342 52.2619Z" fill="#33a1e0"/>
<path d="M42.0142 56.1925C42.0142 56.8382 42.026 57.401 42.0438 57.4898C42.1327 57.9578 42.5089 58.3577 42.9741 58.4821C43.0926 58.5147 43.4304 58.5236 44.497 58.5236H45.8688L45.851 55.9614L45.7681 55.7926C45.6377 55.529 45.4244 55.3157 45.1607 55.1854L44.9355 55.0729L42.0142 55.0551V56.1925Z" fill="#33a1e0"/>
<path d="M46.5473 56.2221C46.5473 57.4869 46.5562 57.5846 46.7162 57.8779C46.8258 58.0763 47.0747 58.3014 47.3087 58.414L47.5102 58.5088L50.4019 58.5265L50.3841 55.9911L50.2893 55.7926C50.159 55.5142 49.9664 55.3187 49.6908 55.1824L49.4686 55.0729L46.5473 55.0551V56.2221Z" fill="#33a1e0"/>
<path d="M51.116 56.2784C51.1248 57.4513 51.1278 57.5076 51.19 57.6735C51.3174 58.0141 51.5989 58.3073 51.9307 58.4377C52.1026 58.5088 52.1085 58.5088 53.5484 58.5176L54.9913 58.5265V57.4217C54.9913 56.8145 54.9765 56.231 54.9617 56.1244C54.8965 55.7156 54.618 55.3483 54.2299 55.1558L54.058 55.0729L51.1071 55.0551L51.116 56.2784Z" fill="#33a1e0"/>
<path d="M55.6431 56.1451C55.6431 56.7434 55.658 57.318 55.6728 57.4217C55.7439 57.9193 56.0846 58.3192 56.5646 58.4673C56.7305 58.5206 56.8549 58.5236 58.1349 58.5236H59.5244V57.3862C59.5244 56.7464 59.5126 56.1806 59.4948 56.0947C59.4207 55.7097 59.1393 55.3424 58.7867 55.1676L58.5912 55.0729L55.6431 55.0551V56.1451Z" fill="#33a1e0"/>
<path d="M61.071 55.1143C60.6533 55.2595 60.3303 55.6238 60.2385 56.0592C60.2178 56.1599 60.2059 56.6279 60.2059 57.3684V58.5236H61.5955C62.8754 58.5236 62.9998 58.5206 63.1658 58.4673C63.5243 58.3547 63.7731 58.1385 63.9479 57.7831L64.0428 57.5905L64.0605 55.058H62.6443C61.3525 55.061 61.2133 55.064 61.071 55.1143Z" fill="#33a1e0"/>
<path d="M65.6131 55.1143C65.1805 55.2683 64.8516 55.6504 64.7686 56.0918C64.7509 56.1806 64.739 56.7523 64.739 57.3862V58.5236H66.1286C67.4293 58.5236 67.53 58.5206 67.7048 58.4643C68.0603 58.3547 68.33 58.1178 68.4929 57.7653L68.5759 57.5905L68.5937 55.058H67.1774C65.8856 55.061 65.7493 55.064 65.6131 55.1143Z" fill="#33a1e0"/>
<path d="M70.2054 55.1114C69.8617 55.2298 69.5862 55.4698 69.4292 55.7926L69.3462 55.9614L69.3284 58.5265L72.2231 58.5088L72.4483 58.3962C72.8157 58.2155 73.0794 57.8749 73.1534 57.4898C73.1712 57.401 73.1831 56.8382 73.1831 56.1954V55.058H71.7698C70.5047 55.061 70.3388 55.0669 70.2054 55.1114Z" fill="#33a1e0"/>
<path d="M74.706 55.1173C74.2675 55.2713 73.9386 55.6623 73.8645 56.1155C73.8467 56.2103 73.8349 56.7908 73.8349 57.4039V58.5236H75.2245C76.5251 58.5236 76.6259 58.5206 76.8036 58.4643C77.2658 58.3222 77.6066 57.9312 77.6866 57.4543C77.7014 57.3477 77.7162 56.776 77.7162 56.1599V55.058L76.2881 55.061C74.9845 55.061 74.8422 55.0669 74.706 55.1173Z" fill="#33a1e0"/>
<path d="M30.2014 57.6853L28 57.6942V59.0864L29.434 59.0923L30.871 59.1012L28.0444 61.3227L28.0356 62.2201L28.0296 63.1147H30.3791C31.6739 63.1147 32.9331 63.1058 33.179 63.0939L33.6294 63.0762V61.6929L32.1746 61.687L30.7199 61.6781L33.6146 59.4566L33.6234 58.5591L33.6294 57.6646L33.0161 57.6705C32.6753 57.6764 31.4102 57.6824 30.2014 57.6853Z" fill="#33a1e0"/>
<path d="M85.9232 59.1959C85.6773 59.7261 85.4788 60.8428 85.5232 61.4352C85.5854 62.2438 85.7988 62.7888 86.2017 63.1887C86.4417 63.4257 86.6995 63.5678 87.0106 63.633C87.7809 63.7959 88.4327 63.4968 88.9245 62.7533C89.0164 62.617 89.2119 62.2735 89.3601 61.9891C89.6741 61.3908 89.8134 61.1894 89.9704 61.1153C90.1867 61.0116 90.4593 61.1509 90.5808 61.4234C90.6637 61.607 90.6845 61.9624 90.6252 62.1698C90.5393 62.466 90.2815 62.7118 89.9941 62.7711C89.8875 62.7948 89.8638 62.8599 89.8638 63.1413V63.3072L90.3556 63.4434L90.8445 63.5797L90.9333 63.4049C91.0578 63.1621 91.1822 62.7622 91.2622 62.3682C91.357 61.8973 91.357 61.1361 91.2622 60.7895C91.0519 60.0105 90.5511 59.4714 89.9289 59.35C89.5053 59.27 89.0253 59.3766 88.6638 59.6314C88.3201 59.8772 88.0713 60.203 87.5646 61.0679C87.2209 61.6514 87.0343 61.841 86.7972 61.841C86.4328 61.841 86.2195 61.4885 86.258 60.9465C86.2758 60.6651 86.3913 60.4015 86.5721 60.2238C86.6965 60.0994 86.9158 59.9749 87.0106 59.9749C87.0402 59.9749 87.0787 59.9631 87.0965 59.9513C87.1261 59.9335 87.1824 59.3529 87.1557 59.3529C87.1498 59.3529 86.898 59.2996 86.5928 59.2344C86.2906 59.1693 86.0239 59.116 86.0032 59.116C85.9795 59.116 85.944 59.1515 85.9232 59.1959Z" fill="#33a1e0"/>
<path d="M37.5107 60.357C37.5107 61.0887 37.5225 61.5685 37.5433 61.6692C37.6203 62.0395 37.9047 62.386 38.2721 62.5608L38.4736 62.6556L41.3653 62.6733L41.3475 60.1379L41.2527 59.9394C41.1223 59.661 40.9298 59.4655 40.6542 59.3292L40.432 59.2196L37.5107 59.2019V60.357Z" fill="#33a1e0"/>
<path d="M42.0142 60.3393C42.0142 60.985 42.026 61.5478 42.0438 61.6366C42.1179 62.0217 42.3815 62.3623 42.7489 62.543L42.9741 62.6556L45.8688 62.6733L45.851 60.1082L45.7681 59.9394C45.6377 59.6758 45.4244 59.4625 45.1607 59.3322L44.9355 59.2196L42.0142 59.2019V60.3393Z" fill="#33a1e0"/>
<path d="M46.5473 60.357C46.5473 61.0887 46.5591 61.5685 46.5799 61.6692C46.6569 62.0395 46.9413 62.386 47.3087 62.5608L47.5102 62.6556L50.4019 62.6733L50.3841 60.1379L50.2893 59.9394C50.159 59.661 49.9664 59.4655 49.6908 59.3292L49.4686 59.2196L46.5473 59.2019V60.357Z" fill="#33a1e0"/>
<path d="M51.11 60.3245C51.11 61.0087 51.1219 61.5122 51.1426 61.6218C51.2167 62.0276 51.4685 62.3594 51.8448 62.543L52.07 62.6556L54.9913 62.6733V61.5685C54.9913 60.9583 54.9765 60.3778 54.9617 60.2711C54.8876 59.8032 54.5588 59.4181 54.1084 59.267C53.9336 59.2078 53.8625 59.2048 52.5174 59.2048H51.11V60.3245Z" fill="#33a1e0"/>
<path d="M55.6431 60.2919C55.6431 60.8902 55.658 61.4648 55.6728 61.5685C55.7439 62.0661 56.0846 62.466 56.5646 62.6141C56.7305 62.6674 56.8549 62.6704 58.1349 62.6704H59.5244V61.533C59.5244 60.8932 59.5126 60.3274 59.4948 60.2415C59.4207 59.8565 59.1482 59.501 58.7897 59.3203L58.5912 59.2196L55.6431 59.2019V60.2919Z" fill="#33a1e0"/>
<path d="M61.0681 59.2641C60.757 59.3766 60.517 59.584 60.3629 59.8772C60.2177 60.1527 60.2059 60.2652 60.2059 61.5152V62.6704H61.5955C62.8961 62.6704 62.9969 62.6674 63.1717 62.6111C63.5272 62.5015 63.7968 62.2646 63.9598 61.9121L64.0428 61.7373L64.0605 59.2048H62.6443C61.314 59.2078 61.2192 59.2108 61.0681 59.2641Z" fill="#33a1e0"/>
<path d="M65.6279 59.2611C65.1953 59.4003 64.8546 59.7883 64.7686 60.2415C64.7509 60.3274 64.739 60.8932 64.739 61.533V62.6704H66.1286C67.4085 62.6704 67.533 62.6674 67.6989 62.6141C68.0603 62.5015 68.3211 62.2735 68.484 61.9328L68.5759 61.7373L68.5937 59.2048L67.1922 59.2078C65.936 59.2078 65.773 59.2137 65.6279 59.2611Z" fill="#33a1e0"/>
<path d="M70.2054 59.2581C69.8617 59.3766 69.5862 59.6165 69.4292 59.9394L69.3462 60.1082L69.3284 62.6733L72.2231 62.6556L72.4483 62.543C72.8157 62.3623 73.0794 62.0217 73.1534 61.6366C73.1712 61.5478 73.1831 60.985 73.1831 60.3422V59.2048H71.7698C70.5047 59.2078 70.3388 59.2137 70.2054 59.2581Z" fill="#33a1e0"/>
<path d="M74.7208 59.2611C74.2852 59.4003 73.9386 59.8061 73.8645 60.2623C73.8467 60.357 73.8349 60.9376 73.8349 61.5537V62.6733L76.7533 62.6556L76.9547 62.5608C77.3369 62.3801 77.6184 62.0098 77.6836 61.6011C77.7014 61.4944 77.7162 60.9287 77.7162 60.3067V59.2048L76.3029 59.2078C75.0259 59.2078 74.8689 59.2137 74.7208 59.2611Z" fill="#33a1e0"/>
<path d="M79.242 59.2581C78.8984 59.3766 78.6228 59.6165 78.4658 59.9394L78.3828 60.1082L78.365 62.6733L81.2568 62.6556L81.4582 62.5608C81.8375 62.3801 82.116 62.0276 82.1901 61.6366C82.2078 61.5478 82.2197 60.9761 82.2197 60.3422V59.2048H80.8064C79.5413 59.2078 79.3754 59.2137 79.242 59.2581Z" fill="#33a1e0"/>
<path d="M37.5107 64.5009C37.5107 65.7834 37.5225 65.896 37.6795 66.1626C37.8662 66.4795 38.204 66.7194 38.5595 66.7846C38.6691 66.8053 39.2321 66.8172 40.0498 66.8172H41.3623V65.6057C41.3623 64.5157 41.3564 64.3765 41.309 64.2195C41.1698 63.7781 40.7846 63.4375 40.3283 63.3516C40.2365 63.3338 39.6054 63.322 38.841 63.322H37.5107V64.5009Z" fill="#33a1e0"/>
<path d="M42.0142 64.4772C42.0142 65.2177 42.026 65.6857 42.0467 65.7864C42.1534 66.2899 42.5652 66.6898 43.0778 66.7875C43.1697 66.8053 43.783 66.8172 44.5533 66.8172H45.8688L45.851 64.255L45.7532 64.0536C45.5784 63.6982 45.2436 63.4346 44.8644 63.3546C44.7607 63.3338 44.2452 63.322 43.3622 63.322H42.0142V64.4772Z" fill="#33a1e0"/>
<path d="M46.5473 64.5009C46.5473 65.7834 46.5591 65.896 46.7162 66.1626C46.9028 66.4795 47.2406 66.7194 47.5961 66.7846C47.7057 66.8053 48.2687 66.8172 49.0864 66.8172H50.4019L50.3841 64.255L50.2893 64.0595C50.1797 63.8344 49.9605 63.6034 49.7531 63.4908C49.4568 63.3279 49.3797 63.322 47.9043 63.322H46.5473V64.5009Z" fill="#33a1e0"/>
<path d="M51.11 64.4594C51.11 65.1081 51.1219 65.662 51.1397 65.7538C51.1871 65.9937 51.3263 66.2662 51.4863 66.4262C51.6611 66.6009 51.9485 66.749 52.1915 66.7875C52.2892 66.8023 52.9588 66.8172 53.6818 66.8172H54.9913V65.7123C54.9913 65.1081 54.9765 64.5246 54.9617 64.4209C54.8876 63.8996 54.4788 63.4642 53.9603 63.3546C53.8566 63.3338 53.341 63.322 52.4581 63.322H51.11V64.4594Z" fill="#33a1e0"/>
<path d="M55.6491 64.5423C55.6639 65.9167 55.6639 65.9226 55.8831 66.2514C56.0194 66.4558 56.2446 66.6335 56.4994 66.7342C56.6624 66.7994 56.692 66.8023 58.0964 66.8112L59.5244 66.8201V65.6827C59.5244 64.9926 59.5126 64.4801 59.4919 64.3735C59.4 63.8729 58.9941 63.4612 58.4934 63.3546C58.3897 63.3338 57.8742 63.322 56.9883 63.322H55.6402L55.6491 64.5423Z" fill="#33a1e0"/>
<path d="M61.1984 63.3635C60.7333 63.476 60.3689 63.8285 60.2503 64.2846C60.2148 64.4268 60.2059 64.6727 60.2059 65.6383V66.8172H61.5184C62.2384 66.8172 62.905 66.8053 62.9998 66.7875C63.3939 66.7253 63.7583 66.4499 63.942 66.0826L64.0428 65.8841L64.0605 63.322L62.7036 63.325C61.7406 63.325 61.3021 63.3368 61.1984 63.3635Z" fill="#33a1e0"/>
<path d="M65.7316 63.3635C65.2516 63.4819 64.8753 63.8729 64.7716 64.3528C64.7509 64.4535 64.739 64.9215 64.739 65.662V66.8172H66.0693C66.8337 66.8172 67.4648 66.8053 67.5567 66.7875C67.9448 66.7164 68.3033 66.441 68.4811 66.0796L68.5759 65.8841L68.5937 63.322L67.2367 63.325C66.2619 63.325 65.8382 63.3368 65.7316 63.3635Z" fill="#33a1e0"/>
<path d="M70.3091 63.3635C69.9477 63.4405 69.6158 63.7071 69.444 64.0536L69.3462 64.255L69.3284 66.8172H70.6439C71.4646 66.8172 72.0216 66.8053 72.1313 66.7846C72.6409 66.6898 73.0557 66.2751 73.1505 65.7656C73.1712 65.659 73.1831 65.1495 73.1831 64.4564V63.322L71.8291 63.325C70.8928 63.325 70.4217 63.3368 70.3091 63.3635Z" fill="#33a1e0"/>
<path d="M74.8274 63.3635C74.3356 63.4849 73.9593 63.8848 73.8645 64.3854C73.8467 64.4772 73.8349 65.0311 73.8349 65.6827V66.8201L75.2659 66.8112C76.6673 66.8023 76.697 66.8023 76.857 66.7372C77.2244 66.5861 77.4881 66.3225 77.6332 65.9611C77.6984 65.8012 77.7014 65.7597 77.7103 64.5571L77.7192 63.322L76.3474 63.325C75.3637 63.325 74.9341 63.3368 74.8274 63.3635Z" fill="#33a1e0"/>
<path d="M79.3457 63.3635C78.9843 63.4405 78.6524 63.7071 78.4806 64.0536L78.3828 64.255L78.365 66.8172H79.6805C80.5012 66.8172 81.0583 66.8053 81.1679 66.7846C81.6686 66.6927 82.0804 66.287 82.1871 65.7864C82.2078 65.6857 82.2197 65.2177 82.2197 64.4772V63.322L80.8657 63.325C79.9294 63.325 79.4583 63.3368 79.3457 63.3635Z" fill="#33a1e0"/>
<path d="M31.0073 64.2047C29.5229 64.4564 28.3052 64.6667 28.2992 64.6727C28.2874 64.6816 28.6222 66.6483 28.64 66.6661C28.6548 66.6809 34.139 65.7508 34.1627 65.7301C34.1745 65.7183 33.8812 63.9144 33.8486 63.787C33.8397 63.7574 33.8071 63.7367 33.7686 63.7396C33.7331 63.7396 32.4916 63.9499 31.0073 64.2047Z" fill="#33a1e0"/>
<path d="M85.2595 65.0607C85.1292 65.579 85.0196 66.0233 85.0136 66.047C85.0047 66.0826 85.1469 66.127 85.7128 66.2692C86.1069 66.3669 86.4269 66.4528 86.4269 66.4617C86.4269 66.4706 86.0536 66.6098 85.5973 66.7727L84.7647 67.0689L84.7381 67.1726C84.6196 67.6258 84.2048 69.3141 84.2107 69.32C84.2166 69.326 85.0255 68.9972 86.0121 68.5914C86.9987 68.1856 87.8194 67.8479 87.8402 67.842C87.8609 67.8331 88.2401 68.387 88.7734 69.2016C89.2682 69.9569 89.6771 70.57 89.683 70.5611C89.689 70.5552 89.7838 70.1938 89.8904 69.7584L90.0889 68.9646L89.2919 67.9783C88.8534 67.4362 88.5009 66.986 88.5068 66.9801C88.5127 66.9741 88.9364 67.0748 89.449 67.2022C89.9615 67.3325 90.403 67.4392 90.4267 67.4392C90.4623 67.4392 90.5274 67.2111 90.7141 66.4676C90.8474 65.9345 90.9482 65.4902 90.9363 65.4813C90.9156 65.4635 85.5647 64.1217 85.5143 64.1217C85.5025 64.1217 85.3869 64.5453 85.2595 65.0607Z" fill="#33a1e0"/>
<path d="M33.0398 67.8331C32.4294 68.7158 31.9228 69.4504 31.9109 69.4622C31.8991 69.477 31.2206 69.1927 30.3999 68.8313C29.5821 68.4699 28.9066 68.1826 28.8977 68.1915C28.8711 68.2182 29.4073 69.7258 29.4518 69.7466C29.4755 69.7614 30.0266 69.9421 30.6725 70.1524C31.3184 70.3597 31.8457 70.5374 31.8398 70.5404C31.8339 70.5463 31.4072 70.6974 30.8858 70.878C30.3673 71.0558 29.9377 71.2098 29.9347 71.2127C29.9258 71.2216 30.4917 72.8922 30.5628 73.0729C30.5747 73.1025 30.5984 73.1262 30.6132 73.1262C30.6399 73.1262 35.8841 71.3223 35.9019 71.3046C35.9137 71.2986 35.2619 69.4148 35.2411 69.397C35.2323 69.3882 34.9182 69.4859 34.5449 69.6133C34.1716 69.7406 33.8605 69.8413 33.8545 69.8354C33.8486 69.8295 34.0827 69.5126 34.373 69.1305C34.6664 68.7484 34.9034 68.4226 34.9034 68.4077C34.9034 68.3752 34.1953 66.3166 34.1656 66.2633C34.1538 66.2396 33.7064 66.8645 33.0398 67.8331Z" fill="#33a1e0"/>
<path d="M55.4358 70.1346C55.4358 72.9366 55.4358 72.9455 55.3735 73.1173C55.2876 73.3424 55.0891 73.5409 54.8639 73.6268L54.6921 73.689H44.414V75.7327H75.3163V73.689L64.9316 73.6742L64.8072 73.606C64.6087 73.5024 64.4813 73.372 64.3835 73.1795L64.2946 72.9988V67.3207H55.4358V70.1346Z" fill="#33a1e0"/>
<path d="M42.0142 68.6625C42.0142 69.2993 42.026 69.871 42.0438 69.9598C42.1179 70.3508 42.3964 70.7033 42.7756 70.884L42.9771 70.9788L45.8688 70.9965L45.851 68.4611L45.7562 68.2626C45.6258 67.9842 45.4333 67.7887 45.1577 67.6524L44.9355 67.5428L42.0142 67.5251V68.6625Z" fill="#33a1e0"/>
<path d="M46.5473 68.6802C46.5473 69.4237 46.5591 69.8917 46.5799 69.9924C46.6599 70.3686 46.9384 70.7092 47.2969 70.878L47.5102 70.9788L50.4019 70.9965L50.3841 68.4611L50.2893 68.2596C50.1649 67.996 49.9308 67.762 49.6671 67.6376L49.4657 67.5428L46.5473 67.5251V68.6802Z" fill="#33a1e0"/>
<path d="M51.11 68.6595C51.11 69.9035 51.1278 70.0842 51.2789 70.336C51.4152 70.57 51.6048 70.7507 51.8478 70.8692L52.07 70.9788L54.9913 70.9965V69.8917C54.9913 69.2697 54.9765 68.7039 54.9587 68.5973C54.8936 68.1826 54.6388 67.842 54.2565 67.6554L54.0314 67.5428L51.11 67.5251V68.6595Z" fill="#33a1e0"/>
<path d="M65.6427 67.5813C65.1805 67.7413 64.8546 68.1086 64.7686 68.5647C64.7509 68.6536 64.739 69.2193 64.739 69.8591V70.9965L67.6574 70.9788L67.8559 70.884C68.1344 70.7536 68.33 70.5611 68.4663 70.2856L68.5759 70.0635L68.5937 67.528H67.1922C65.9419 67.531 65.776 67.5369 65.6427 67.5813Z" fill="#33a1e0"/>
<path d="M70.2054 67.5813C69.8588 67.6998 69.6188 67.9101 69.444 68.2448L69.3462 68.4314L69.3284 70.9965L72.2201 70.9788L72.4216 70.884C72.8009 70.7033 73.0794 70.3508 73.1534 69.9598C73.1712 69.871 73.1831 69.2993 73.1831 68.6654V67.528H71.7698C70.5047 67.531 70.3388 67.5369 70.2054 67.5813Z" fill="#33a1e0"/>
<path d="M74.7682 67.5695C74.4512 67.6702 74.1667 67.8953 74.0097 68.1678C73.8527 68.4433 73.8349 68.6062 73.8349 69.8621V70.9965L76.7562 70.9788L76.9814 70.8662C77.3636 70.6796 77.6184 70.339 77.6836 69.9243C77.7014 69.8176 77.7162 69.2519 77.7162 68.6299V67.528L76.3029 67.531C75.2452 67.531 74.8571 67.5428 74.7682 67.5695Z" fill="#33a1e0"/>
<path d="M85.0877 70.0457C84.1455 70.2175 83.2981 70.9432 82.7382 72.0599C82.3856 72.7648 82.2404 73.3039 82.2404 73.9259C82.2375 74.3554 82.276 74.5746 82.4093 74.9034C82.8537 75.9964 84.4714 76.8761 85.6773 76.6806C86.2195 76.5947 86.6076 76.3814 87.0787 75.9105C87.692 75.3003 88.1779 74.4206 88.4031 73.5231C88.4712 73.2447 88.4831 73.138 88.4831 72.7559C88.4861 72.2702 88.4446 72.054 88.2935 71.7163C87.9794 71.0143 87.1854 70.3834 86.2906 70.1168C86.0773 70.0546 85.9499 70.0368 85.6269 70.0309C85.4077 70.025 85.1647 70.0309 85.0877 70.0457ZM84.9247 71.8525C85.6536 72.0451 86.6224 72.5753 87.0846 73.0373C87.3928 73.3454 87.5083 73.5794 87.5083 73.8963C87.5054 74.0829 87.4905 74.151 87.4135 74.3169C87.055 75.0811 86.2432 75.1315 84.901 74.4739C84.11 74.0829 83.5648 73.6416 83.3693 73.2269C83.2863 73.0521 83.2715 72.9899 83.2715 72.8004C83.2744 72.6138 83.2893 72.5456 83.3663 72.3798C83.5707 71.9414 83.9174 71.7489 84.4418 71.7785C84.5811 71.7844 84.7973 71.82 84.9247 71.8525Z" fill="#33a1e0"/>
<path d="M35.813 71.9444C35.5819 72.0836 35.4722 72.1635 35.4871 72.1872C35.7685 72.6404 36.4055 73.7689 36.3907 73.7808C36.3789 73.7926 36.0589 73.9852 35.6767 74.2073C35.1049 74.542 34.9775 74.6072 34.9478 74.5716C34.9271 74.5509 34.7226 74.2073 34.4886 73.8075C34.2575 73.4076 34.0649 73.0788 34.059 73.0729C34.056 73.067 33.419 73.4313 33.3686 73.4698C33.3627 73.4727 33.5612 73.8252 33.8071 74.2518C34.056 74.6753 34.2516 75.0308 34.2427 75.0396C34.2338 75.0485 33.9434 75.2233 33.5968 75.4247C33.1316 75.6972 32.9627 75.7831 32.945 75.7564C32.9301 75.7357 32.7227 75.3803 32.4828 74.9656C32.2398 74.5539 32.0294 74.2103 32.0117 74.2044C31.9939 74.1955 31.8309 74.2784 31.6472 74.388L31.3154 74.5835L31.3717 74.6753C31.4013 74.7286 31.8428 75.4869 32.3554 76.3607C32.865 77.2374 33.2946 77.9542 33.3035 77.9542C33.342 77.9542 38.118 75.1433 38.1269 75.1167C38.1329 75.093 36.2367 71.814 36.1833 71.7578C36.1715 71.7489 36.0056 71.8318 35.813 71.9444Z" fill="#33a1e0"/>
<path d="M79.7309 76.8524C79.0554 77.6758 78.4984 78.36 78.4925 78.3719C78.4836 78.3926 79.1058 78.9169 79.1206 78.8991C79.1235 78.8932 79.3931 78.5644 79.7161 78.1675C80.2376 77.5277 80.3087 77.4537 80.3501 77.4892C80.3975 77.5307 83.6152 80.1728 83.8848 80.392L84.0211 80.5045L84.6611 79.7255C85.0136 79.299 85.301 78.9406 85.301 78.9287C85.301 78.9139 81.1412 75.4839 81.0079 75.3862C80.9664 75.3566 80.7857 75.561 79.7309 76.8524Z" fill="#33a1e0"/>
<path d="M38.1417 75.8187C37.9758 75.9579 37.8395 76.0793 37.8395 76.0882C37.8366 76.0971 38.1032 76.4199 38.4291 76.805C38.7551 77.1901 39.0217 77.5188 39.0187 77.5307C39.0187 77.5425 38.198 78.2416 37.1996 79.0798C36.1981 79.918 35.3834 80.62 35.3863 80.6408C35.3893 80.6585 35.6559 80.9873 35.9759 81.3694C36.2989 81.7515 36.5863 82.0951 36.6159 82.1307L36.6722 82.1988L38.8262 80.3831C40.7105 78.7955 40.9742 78.5644 40.9416 78.52C40.829 78.3778 38.5595 75.6794 38.5062 75.6261L38.444 75.561L38.1417 75.8187Z" fill="#33a1e0"/>
<path d="M77.7606 79.139C77.4851 79.3642 77.2451 79.5685 77.2332 79.5893C77.2155 79.613 77.3132 79.9151 77.491 80.4127C77.648 80.8422 77.7725 81.2124 77.7695 81.2332C77.7636 81.2539 77.5147 81.4701 77.2125 81.713L76.6673 82.1543L76.4718 82.0329C76.3651 81.9648 76.0333 81.7545 75.7341 81.562L75.1889 81.2154L74.3801 81.87C73.9327 82.2284 73.5682 82.5305 73.5682 82.5394C73.5682 82.5572 78.6436 85.5606 78.7206 85.5873C78.7443 85.5991 80.1753 84.444 80.1753 84.4173C80.1724 84.3492 78.3147 78.7421 78.291 78.7362C78.2762 78.7332 78.0391 78.9139 77.7606 79.139ZM78.3206 82.6786C78.4569 83.037 78.5665 83.3332 78.5606 83.3391C78.5517 83.348 77.4229 82.6194 77.3814 82.5779C77.3666 82.5631 77.5147 82.4268 77.7073 82.2699C77.8999 82.1129 78.0599 81.9944 78.0658 82.0063C78.0688 82.0181 78.1843 82.3202 78.3206 82.6786Z" fill="#33a1e0"/>
<path d="M41.0661 79.7611C40.675 79.844 40.2572 80.1698 40.0794 80.5312C39.9935 80.7059 39.9846 80.7474 39.9846 81.0051C39.9846 81.2598 39.9935 81.3043 40.0794 81.4849C40.1742 81.6864 40.3372 81.9381 40.509 82.1425L40.6039 82.2551L40.4853 82.1958C40.1594 82.0299 39.6706 81.947 39.3743 82.0092C39.0187 82.0833 38.6958 82.3824 38.5477 82.7734C38.4617 82.9985 38.4558 83.3214 38.5328 83.5643C38.6069 83.7983 38.8262 84.127 39.0721 84.3758C39.2647 84.5684 41.5934 86.4759 41.6675 86.4996C41.6971 86.5085 45.1755 82.2432 45.2081 82.1603C45.217 82.1336 43.1134 80.4157 42.823 80.2142C42.6008 80.0573 42.2127 79.8736 41.9697 79.8055C41.7564 79.7492 41.2497 79.7226 41.0661 79.7611ZM43.0215 81.2658C43.1104 81.3102 43.1845 81.3605 43.1845 81.3813C43.1845 81.402 42.9178 81.7486 42.5919 82.1484C42.266 82.5513 41.9905 82.8949 41.9786 82.9126C41.949 82.96 41.7001 82.7053 41.626 82.5542C41.5134 82.3202 41.5549 82.0685 41.7564 81.7782C41.9786 81.4553 42.2038 81.2687 42.4645 81.1976C42.6601 81.1443 42.8112 81.165 43.0215 81.2658ZM41.4334 83.2266C41.5253 83.2829 41.5994 83.3391 41.5994 83.354C41.5994 83.3658 41.3594 83.6768 41.0631 84.0411C40.4705 84.7787 40.5061 84.752 40.3283 84.5388C40.038 84.1863 40.0972 83.8338 40.5209 83.3925C40.7342 83.1674 40.8587 83.1052 41.0838 83.117C41.229 83.1229 41.3001 83.1466 41.4334 83.2266Z" fill="#33a1e0"/>
<path d="M46.7932 85.2526C46.488 85.3503 46.2628 85.5547 46.1266 85.8509C46.0703 85.9694 46.0584 86.0464 46.0584 86.2774C46.0584 86.5351 46.0673 86.5766 46.1562 86.7573C46.2688 86.9854 46.4288 87.1423 46.6628 87.2519C46.805 87.3171 46.8673 87.329 47.1102 87.329C47.3532 87.329 47.4154 87.3171 47.5606 87.249C47.7768 87.1483 47.9813 86.9439 48.082 86.7277C48.1502 86.5825 48.162 86.5203 48.162 86.2774C48.162 86.0346 48.1502 85.9724 48.082 85.8272C47.9813 85.611 47.7739 85.4037 47.5606 85.3059C47.3561 85.2141 46.9917 85.1874 46.7932 85.2526Z" fill="#33a1e0"/>
<path d="M67.0411 85.4185C66.5226 85.5281 66.0901 85.6288 66.0812 85.6377C66.0693 85.6465 66.1671 86.156 66.2945 86.7662C66.4189 87.3793 66.5167 87.8858 66.5078 87.8947C66.493 87.9125 64.9968 88.2324 64.9849 88.2235C64.9849 88.2205 64.8783 87.717 64.7509 87.1068C64.6235 86.4966 64.5138 85.9872 64.505 85.9753C64.4901 85.9605 62.5495 86.3545 62.5258 86.3782C62.508 86.393 63.6487 91.8282 63.6724 91.8578C63.6961 91.8815 65.5953 91.5024 65.6338 91.4639C65.6486 91.452 65.5449 90.9041 65.4057 90.2465C65.2694 89.586 65.1657 89.038 65.1775 89.0291C65.2071 88.9995 66.6708 88.7004 66.6886 88.7181C66.6974 88.727 66.816 89.272 66.9552 89.9266C67.0915 90.5842 67.21 91.1262 67.2159 91.1322C67.2219 91.1381 67.6693 91.0492 68.2114 90.9367C69.1892 90.7323 69.1981 90.7293 69.1862 90.6582C69.1803 90.6079 68.3774 86.7573 68.0692 85.2911C68.0603 85.2467 68.0366 85.2141 68.0189 85.2141C67.9981 85.2171 67.5596 85.3089 67.0411 85.4185Z" fill="#33a1e0"/>
<path d="M72.1431 85.3089C71.6987 85.4955 71.4794 85.8302 71.4794 86.3219C71.4824 86.5499 71.4943 86.6122 71.5654 86.7573C71.6691 86.9735 71.8616 87.169 72.0809 87.2756C72.229 87.3497 72.2824 87.3586 72.5312 87.3586C72.7742 87.3586 72.8364 87.3467 72.9786 87.2816C73.2038 87.1749 73.3608 87.0268 73.4823 86.8047C73.5801 86.627 73.583 86.6062 73.583 86.3071C73.583 86.0405 73.5712 85.9753 73.5119 85.8568C73.4082 85.6465 73.2394 85.4688 73.029 85.3592C72.8631 85.2704 72.8127 85.2585 72.5757 85.2496C72.3476 85.2407 72.2853 85.2496 72.1431 85.3089Z" fill="#33a1e0"/>
<path d="M51.747 85.4007C51.7322 85.4422 50.7634 90.7382 50.7486 90.8389L50.7397 90.913L53.5247 91.4402L54.058 91.4432C54.538 91.4461 54.6121 91.4402 54.8136 91.378C55.4595 91.1766 55.8535 90.7886 55.9868 90.2287C56.0431 89.9918 56.0283 89.6956 55.9542 89.5179C55.8209 89.2009 55.4743 88.9018 55.0121 88.7181C54.8847 88.6678 54.7721 88.6174 54.7632 88.6056C54.7513 88.5967 54.8165 88.5878 54.9084 88.5878C54.9973 88.5878 55.1721 88.5611 55.2935 88.5315C55.7468 88.416 56.055 88.1939 56.2002 87.8828C56.2742 87.7288 56.2802 87.6814 56.2802 87.3586C56.2802 87.015 56.2772 86.9942 56.1824 86.8047C56.055 86.5411 55.8328 86.3426 55.4832 86.1738C55.335 86.1027 55.1335 86.0227 55.0358 85.9931C54.698 85.8983 51.7559 85.3681 51.747 85.4007ZM53.8506 86.4581C54.2151 86.5707 54.3602 86.7988 54.3306 87.2105C54.298 87.6459 54.138 87.9836 53.9158 88.0843C53.7618 88.1553 53.3707 88.1672 53.344 88.102C53.3351 88.0813 53.3973 87.6992 53.4773 87.2519C53.5603 86.8047 53.6284 86.4285 53.6284 86.4167C53.6284 86.387 53.6255 86.387 53.8506 86.4581ZM53.424 88.7063C53.7973 88.8218 53.9514 89.0321 53.9543 89.4231C53.9543 89.9503 53.7795 90.3443 53.4595 90.5338C53.3529 90.596 53.2729 90.6138 53.0892 90.6256L52.8522 90.6405L52.8699 90.5546C52.8996 90.4124 53.2136 88.6944 53.2136 88.6678C53.2136 88.6382 53.2107 88.6382 53.424 88.7063Z" fill="#33a1e0"/>
<path d="M57.0949 87.1364H58.5823L58.5615 89.5504L58.5378 91.9645H59.4711C59.9866 91.9645 60.4488 91.9734 60.4992 91.9822L60.5911 92V91.0551C60.5911 90.5338 60.6 89.4468 60.6118 88.6381L60.6296 87.166H62.1021V86.8136C62.1021 86.6181 62.111 86.4404 62.1199 86.4167C62.1377 86.3722 61.7525 86.3633 58.3038 86.3248L57.0949 86.313V87.1364Z" fill="#33a1e0"/>
<defs>

<clipPath id="bgblur_0_43_4348_clip_path" transform="translate(9 9)"><path d="M105 60C105 35.1472 84.8528 15 60 15C35.1472 15 15 35.1472 15 60C15 84.8528 35.1472 105 60 105C84.8528 105 105 84.8528 105 60Z"/>
</clipPath></defs>
</svg>
